<svg width="16" height="16" viewBox="0 0 16 16" fill="none" xmlns="http://www.w3.org/2000/svg">
<path d="M14.6807 11.3216C14.0791 10.6728 12.9536 9.69688 12.9536 6.5C12.9536 4.07188 11.2573 2.12813 8.97009 1.65125V1C8.97009 0.447812 8.52423 0 7.97437 0C7.42452 0 6.97866 0.447812 6.97866 1V1.65125C4.69145 2.12813 2.99518 4.07188 2.99518 6.5C2.99518 9.69688 1.86964 10.6728 1.2681 11.3216C1.08129 11.5231 0.998465 11.7641 1.00002 12C1.00345 12.5125 1.40416 13 1.99947 13H13.9493C14.5446 13 14.9456 12.5125 14.9487 12C14.9503 11.7641 14.8675 11.5228 14.6807 11.3216V11.3216ZM3.1026 11.5C3.7633 10.6259 4.48564 9.17719 4.48907 6.51813C4.48907 6.51188 4.4872 6.50625 4.4872 6.5C4.4872 4.56687 6.04833 3 7.97437 3C9.90042 3 11.4616 4.56687 11.4616 6.5C11.4616 6.50625 11.4597 6.51188 11.4597 6.51813C11.4631 9.1775 12.1855 10.6263 12.8461 11.5H3.1026ZM7.97437 16C9.07408 16 9.96611 15.1047 9.96611 14H5.98264C5.98264 15.1047 6.87467 16 7.97437 16Z" fill="#333333"/>
<path fill-rule="evenodd" clip-rule="evenodd" d="M12 8C14.2091 8 16 6.20914 16 4C16 1.79086 14.2091 0 12 0C9.79086 0 8 1.79086 8 4C8 6.20914 9.79086 8 12 8Z" fill="#009AFF"/>
</svg>
