<svg width="175" height="37" viewBox="0 0 175 37" fill="none" xmlns="http://www.w3.org/2000/svg">
<rect x="3" y="1" width="2" height="2" fill="#333333"/>
<rect x="2" y="2" width="1" height="3" fill="#333333"/>
<rect x="1" y="3" width="1" height="3" fill="#333333"/>
<rect y="5" width="2" height="1" fill="#333333"/>
<rect width="2" height="2" transform="matrix(-1 0 0 1 172 1)" fill="#333333"/>
<rect width="1" height="3" transform="matrix(-1 0 0 1 173 2)" fill="#333333"/>
<rect width="1" height="3" transform="matrix(-1 0 0 1 174 3)" fill="#333333"/>
<rect width="2" height="1" transform="matrix(-1 0 0 1 175 5)" fill="#333333"/>
<rect x="3" y="34" width="2" height="2" fill="#333333"/>
<rect x="2" y="32" width="1" height="3" fill="#333333"/>
<rect width="1" height="3" transform="matrix(1 0 0 -1 1 34)" fill="#333333"/>
<rect width="2" height="1" transform="matrix(1 0 0 -1 0 32)" fill="#333333"/>
<rect width="2" height="2" transform="matrix(-1 0 0 1 172 34)" fill="#333333"/>
<rect width="1" height="3" transform="matrix(-1 0 0 1 173 32)" fill="#333333"/>
<rect x="174" y="34" width="1" height="3" transform="rotate(180 174 34)" fill="#333333"/>
<rect x="175" y="32" width="2" height="1" transform="rotate(180 175 32)" fill="#333333"/>
<rect x="5" width="165" height="2" fill="#333333"/>
<rect x="5" y="35" width="165" height="2" fill="#333333"/>
<rect y="6" width="2" height="25" fill="#333333"/>
<rect width="2" height="25" transform="matrix(-1 0 0 1 175 6)" fill="#333333"/>
</svg>
