<svg width="79" height="24" viewBox="0 0 79 24" fill="none" xmlns="http://www.w3.org/2000/svg">
<rect x="3" y="1" width="2" height="3" fill="#333333"/>
<rect x="2" y="2" width="2" height="3" fill="#333333"/>
<rect x="1" y="3" width="1" height="3" fill="#333333"/>
<rect y="5" width="3" height="1" fill="#333333"/>
<rect width="2" height="3" transform="matrix(-1 0 0 1 76 1)" fill="#333333"/>
<rect width="2" height="3" transform="matrix(-1 0 0 1 77 2)" fill="#333333"/>
<rect width="2" height="3" transform="matrix(-1 0 0 1 78 3)" fill="#333333"/>
<rect width="2" height="1" transform="matrix(-1 0 0 1 79 5)" fill="#333333"/>
<rect x="3" y="20" width="2" height="3" fill="#333333"/>
<rect x="2" y="19" width="2" height="3" fill="#333333"/>
<rect width="1" height="3" transform="matrix(1 0 0 -1 1 21)" fill="#333333"/>
<rect width="3" height="1" transform="matrix(1 0 0 -1 0 19)" fill="#333333"/>
<rect width="2" height="3" transform="matrix(-1 0 0 1 76 20)" fill="#333333"/>
<rect width="2" height="3" transform="matrix(-1 0 0 1 77 19)" fill="#333333"/>
<rect x="78" y="21" width="1" height="3" transform="rotate(180 78 21)" fill="#333333"/>
<rect x="79" y="19" width="3" height="1" transform="rotate(180 79 19)" fill="#333333"/>
<rect x="5" width="69" height="3" fill="#333333"/>
<rect x="5" y="21" width="69" height="3" fill="#333333"/>
<rect y="6" width="3" height="12" fill="#333333"/>
<rect width="3" height="12" transform="matrix(-1 0 0 1 79 6)" fill="#333333"/>
<path d="M11.668 9.65234V14.5352H14.1094V14.0469H14.5977V10.1406H14.1094V9.65234H11.668ZM10.6914 15.5117V8.67578H14.5977V9.16406H15.0859V9.65234H15.5742V14.5352H15.0859V15.0234H14.5977V15.5117H10.6914ZM17.5273 15.5117V14.5352H18.5039V9.65234H17.5273V8.67578H20.457V9.65234H19.4805V14.5352H20.457V15.5117H17.5273ZM26.8047 9.65234H27.293V10.6289H26.3164V10.1406H25.8281V9.65234H23.875V10.1406H23.3867V11.1172H23.875V11.6055H26.3164V12.0938H26.8047V12.582H27.293V14.5352H26.8047V15.0234H26.3164V15.5117H23.3867V15.0234H22.8984V14.5352H22.4102V13.5586H23.3867V14.0469H23.875V14.5352H25.8281V14.0469H26.3164V13.0703H25.8281V12.582H23.3867V12.0938H22.8984V11.6055H22.4102V9.65234H22.8984V9.16406H23.3867V8.67578H26.3164V9.16406H26.8047V9.65234ZM29.7344 14.5352H31.6875V14.0469H32.1758V13.5586H33.1523V14.5352H32.6641V15.0234H32.1758V15.5117H29.2461V15.0234H28.7578V14.5352H28.2695V9.65234H28.7578V9.16406H29.2461V8.67578H32.1758V9.16406H32.6641V9.65234H33.1523V10.6289H32.1758V10.1406H31.6875V9.65234H29.7344V10.1406H29.2461V14.0469H29.7344V14.5352ZM37.5469 9.65234H35.5938V10.1406H35.1055V14.0469H35.5938V14.5352H37.5469V14.0469H38.0352V10.1406H37.5469V9.65234ZM35.1055 9.16406V8.67578H38.0352V9.16406H38.5234V9.65234H39.0117V14.5352H38.5234V15.0234H38.0352V15.5117H35.1055V15.0234H34.6172V14.5352H34.1289V9.65234H34.6172V9.16406H35.1055ZM40.9648 11.6055V15.5117H39.9883V8.67578H40.9648V10.1406H41.4531V10.6289H41.9414V11.1172H42.4297V11.6055H42.918V12.0938H43.4062V12.582H43.8945V8.67578H44.8711V15.5117H43.8945V14.0469H43.4062V13.5586H42.918V13.0703H42.4297V12.582H41.9414V12.0938H41.4531V11.6055H40.9648ZM46.8242 11.6055V15.5117H45.8477V8.67578H46.8242V10.1406H47.3125V10.6289H47.8008V11.1172H48.2891V11.6055H48.7773V12.0938H49.2656V12.582H49.7539V8.67578H50.7305V15.5117H49.7539V14.0469H49.2656V13.5586H48.7773V13.0703H48.2891V12.582H47.8008V12.0938H47.3125V11.6055H46.8242ZM56.5898 8.67578V9.65234H52.6836V11.6055H55.6133V12.582H52.6836V14.5352H56.5898V15.5117H51.707V8.67578H56.5898ZM59.0312 14.5352H60.9844V14.0469H61.4727V13.5586H62.4492V14.5352H61.9609V15.0234H61.4727V15.5117H58.543V15.0234H58.0547V14.5352H57.5664V9.65234H58.0547V9.16406H58.543V8.67578H61.4727V9.16406H61.9609V9.65234H62.4492V10.6289H61.4727V10.1406H60.9844V9.65234H59.0312V10.1406H58.543V14.0469H59.0312V14.5352ZM65.3789 9.65234H63.4258V8.67578H68.3086V9.65234H66.3555V15.5117H65.3789V9.65234Z" fill="#333333"/>
</svg>
