<svg width="20" height="20" viewBox="0 0 20 20" fill="none" xmlns="http://www.w3.org/2000/svg">
<g clip-path="url(#clip0_333_3275)">
<path d="M16.9312 3.64169C15.6346 3.04655 14.2662 2.62218 12.8604 2.37919C12.8476 2.37669 12.8343 2.37833 12.8225 2.38387C12.8106 2.38941 12.8009 2.39857 12.7946 2.41002C12.6196 2.72252 12.4246 3.13002 12.2879 3.45169C10.7724 3.22151 9.23088 3.22151 7.7154 3.45169C7.5633 3.09527 7.39165 2.74752 7.20123 2.41002C7.19467 2.39883 7.18486 2.38989 7.17311 2.38438C7.16135 2.37888 7.14821 2.37707 7.1354 2.37919C5.72944 2.62167 4.36101 3.04607 3.06457 3.64169C3.05359 3.64629 3.04429 3.65414 3.0379 3.66419C0.444567 7.53836 -0.266266 11.3167 0.0829005 15.0475C0.0837487 15.0568 0.0864772 15.0658 0.0909192 15.0739C0.0953611 15.0821 0.101423 15.0893 0.108734 15.095C1.6184 16.2135 3.30716 17.0674 5.1029 17.62C5.11556 17.6237 5.12903 17.6234 5.14153 17.6193C5.15403 17.6151 5.16497 17.6072 5.1729 17.5967C5.55895 17.0721 5.90069 16.5163 6.19457 15.935C6.19866 15.9271 6.20103 15.9183 6.20151 15.9094C6.20198 15.9005 6.20056 15.8915 6.19733 15.8832C6.1941 15.8748 6.18914 15.8673 6.18278 15.861C6.17641 15.8547 6.16879 15.8498 6.1604 15.8467C5.62159 15.6405 5.09995 15.3919 4.6004 15.1034C4.59124 15.0981 4.58354 15.0906 4.57797 15.0816C4.5724 15.0726 4.56914 15.0624 4.56848 15.0518C4.56782 15.0413 4.56978 15.0307 4.57419 15.0211C4.57859 15.0115 4.58531 15.0031 4.59373 14.9967C4.69893 14.918 4.8023 14.8369 4.90373 14.7534C4.91261 14.7462 4.92331 14.7416 4.93464 14.7401C4.94597 14.7386 4.95748 14.7403 4.9679 14.745C8.24123 16.2392 11.7846 16.2392 15.0196 14.745C15.0301 14.7402 15.0418 14.7384 15.0533 14.7398C15.0648 14.7413 15.0756 14.746 15.0846 14.7534C15.1846 14.835 15.2896 14.9184 15.3954 14.9967C15.4037 15.003 15.4104 15.0112 15.4148 15.0207C15.4193 15.0301 15.4213 15.0405 15.4208 15.0509C15.4203 15.0614 15.4173 15.0715 15.412 15.0805C15.4067 15.0895 15.3993 15.097 15.3904 15.1025C14.892 15.3938 14.3699 15.6425 13.8296 15.8459C13.8212 15.8491 13.8135 15.854 13.8071 15.8604C13.8008 15.8668 13.7958 15.8744 13.7926 15.8828C13.7894 15.8912 13.788 15.9002 13.7884 15.9092C13.7889 15.9182 13.7913 15.927 13.7954 15.935C14.0954 16.5167 14.4387 17.07 14.8162 17.5959C14.824 17.6066 14.8349 17.6146 14.8475 17.6188C14.86 17.623 14.8736 17.6231 14.8862 17.6192C16.685 17.0682 18.3765 16.2143 19.8879 15.0942C19.8953 15.089 19.9014 15.0823 19.906 15.0745C19.9106 15.0668 19.9135 15.0581 19.9146 15.0492C20.3312 10.735 19.2162 6.98752 16.9571 3.66586C16.9518 3.65465 16.9426 3.64576 16.9312 3.64086V3.64169ZM6.68373 12.775C5.6979 12.775 4.88623 11.8709 4.88623 10.7592C4.88623 9.64836 5.6829 8.74336 6.68373 8.74336C7.69207 8.74336 8.49707 9.65669 8.48123 10.76C8.48123 11.8709 7.68457 12.775 6.68373 12.775ZM13.3296 12.775C12.3437 12.775 11.5321 11.8709 11.5321 10.7592C11.5321 9.64836 12.3279 8.74336 13.3296 8.74336C14.3379 8.74336 15.1429 9.65669 15.1271 10.76C15.1271 11.8709 14.3387 12.775 13.3296 12.775Z" fill="#333333"/>
</g>
<defs>
<clipPath id="clip0_333_3275">
<rect width="20" height="20" fill="white"/>
</clipPath>
</defs>
</svg>
