<svg width="16" height="16" viewBox="0 0 16 16" fill="none" xmlns="http://www.w3.org/2000/svg">
<path d="M5.35161 12.9644C5.35161 13.0259 5.27742 13.075 5.18387 13.075C5.07742 13.0842 5.00323 13.0351 5.00323 12.9644C5.00323 12.903 5.07742 12.8538 5.17097 12.8538C5.26774 12.8446 5.35161 12.8937 5.35161 12.9644ZM4.34839 12.8261C4.32581 12.8876 4.39032 12.9583 4.4871 12.9767C4.57097 13.0074 4.66774 12.9767 4.6871 12.9152C4.70645 12.8538 4.64516 12.7831 4.54839 12.7555C4.46452 12.734 4.37097 12.7647 4.34839 12.8261ZM5.77419 12.7739C5.68064 12.7954 5.61613 12.8538 5.62581 12.9245C5.63548 12.9859 5.71935 13.0259 5.81613 13.0043C5.90968 12.9828 5.97419 12.9245 5.96452 12.863C5.95484 12.8046 5.86774 12.7647 5.77419 12.7739ZM7.89677 1C3.42258 1 0 4.23537 0 8.49696C0 11.9044 2.25161 14.8202 5.46774 15.8464C5.88064 15.9171 6.02581 15.6744 6.02581 15.4747C6.02581 15.2842 6.01613 14.2334 6.01613 13.5881C6.01613 13.5881 3.75806 14.049 3.28387 12.6725C3.28387 12.6725 2.91613 11.7784 2.3871 11.548C2.3871 11.548 1.64839 11.0656 2.43871 11.0748C2.43871 11.0748 3.24194 11.1363 3.68387 11.8675C4.39032 13.0535 5.57419 12.7125 6.03548 12.5097C6.10968 12.0181 6.31935 11.677 6.55161 11.4742C4.74839 11.2837 2.92903 11.0349 2.92903 8.07909C2.92903 7.23415 3.17419 6.81014 3.69032 6.26938C3.60645 6.06966 3.33226 5.24623 3.77419 4.18313C4.44839 3.98342 6 5.01271 6 5.01271C6.64516 4.84065 7.33871 4.75155 8.02581 4.75155C8.7129 4.75155 9.40645 4.84065 10.0516 5.01271C10.0516 5.01271 11.6032 3.98035 12.2774 4.18313C12.7194 5.2493 12.4452 6.06966 12.3613 6.26938C12.8774 6.81321 13.1935 7.23722 13.1935 8.07909C13.1935 11.0441 11.2935 11.2807 9.49032 11.4742C9.7871 11.717 10.0387 12.1778 10.0387 12.8999C10.0387 13.9353 10.029 15.2166 10.029 15.4685C10.029 15.6682 10.1774 15.911 10.5871 15.8403C13.8129 14.8202 16 11.9044 16 8.49696C16 4.23537 12.371 1 7.89677 1ZM3.13548 11.5971C3.09355 11.6279 3.10323 11.6985 3.15806 11.7569C3.20968 11.8061 3.28387 11.8276 3.32581 11.7876C3.36774 11.7569 3.35806 11.6862 3.30323 11.6279C3.25161 11.5787 3.17742 11.5572 3.13548 11.5971ZM2.7871 11.3483C2.76452 11.3882 2.79677 11.4374 2.86129 11.4681C2.9129 11.4988 2.97742 11.4896 3 11.4466C3.02258 11.4066 2.99032 11.3575 2.92581 11.3267C2.86129 11.3083 2.80968 11.3175 2.7871 11.3483ZM3.83226 12.4421C3.78065 12.482 3.8 12.5742 3.87419 12.6326C3.94839 12.7032 4.04194 12.7125 4.08387 12.6633C4.12581 12.6234 4.10645 12.5312 4.04194 12.4728C3.97097 12.4021 3.87419 12.3929 3.83226 12.4421ZM3.46452 11.9904C3.4129 12.0211 3.4129 12.101 3.46452 12.1717C3.51613 12.2424 3.60323 12.2731 3.64516 12.2424C3.69677 12.2024 3.69677 12.1225 3.64516 12.0519C3.6 11.9812 3.51613 11.9505 3.46452 11.9904Z" fill="#333333"/>
</svg>
