<svg width="20" height="20" viewBox="0 0 20 20" fill="none" xmlns="http://www.w3.org/2000/svg">
<path d="M9.99963 0C7.62406 0.00165209 5.32656 0.848394 3.51809 2.38877C1.70962 3.92914 0.508146 6.06267 0.128579 8.40772C-0.250988 10.7528 0.216111 13.1564 1.44633 15.1886C2.67654 17.2208 4.58962 18.7491 6.84338 19.5C7.34338 19.5938 7.53088 19.2813 7.53088 19.0313V17.1563C4.74963 17.75 4.15588 15.9688 4.15588 15.9688C3.68713 14.8125 3.03088 14.5 3.03088 14.5C2.12463 13.875 3.09338 13.9063 3.09338 13.9063C4.09338 13.9688 4.62463 14.9375 4.62463 14.9375C5.53088 16.4688 6.96838 16.0313 7.53088 15.7813C7.5747 15.2738 7.796 14.798 8.15588 14.4375C5.93713 14.1875 3.59338 13.3125 3.59338 9.5C3.57506 8.50424 3.9449 7.54041 4.62463 6.8125C4.3295 5.94548 4.36286 5.0003 4.71838 4.15625C4.71838 4.15625 5.56213 3.875 7.46838 5.1875C8.28307 4.96396 9.12359 4.84838 9.96838 4.84375C10.8133 4.84625 11.6541 4.96186 12.4684 5.1875C14.3746 3.90625 15.2184 4.15625 15.2184 4.15625C15.5739 5.0003 15.6073 5.94548 15.3121 6.8125C15.9968 7.53734 16.3674 8.50324 16.3434 9.5C16.3434 13.3438 13.9996 14.1875 11.7809 14.4375C12.0182 14.6796 12.202 14.9688 12.3204 15.2864C12.4389 15.604 12.4893 15.9429 12.4684 16.2813V19.0313C12.4684 19.3125 12.6559 19.5938 13.1559 19.5C15.4096 18.7491 17.3227 17.2208 18.5529 15.1886C19.7831 13.1564 20.2502 10.7528 19.8707 8.40772C19.4911 6.06267 18.2896 3.92914 16.4812 2.38877C14.6727 0.848394 12.3752 0.00165209 9.99963 0V0Z" fill="#333333"/>
<path d="M3.78077 14.3438C3.74952 14.4063 3.68702 14.4063 3.62452 14.375C3.56202 14.3438 3.49952 14.2813 3.53077 14.2188C3.56202 14.1563 3.62452 14.1563 3.71827 14.1875C3.78077 14.25 3.81202 14.3125 3.78077 14.3438ZM4.18702 14.8125C4.15209 14.8317 4.11186 14.8391 4.07238 14.8335C4.03291 14.8279 3.99632 14.8096 3.96813 14.7814C3.93993 14.7532 3.92166 14.7166 3.91605 14.6772C3.91044 14.6377 3.9178 14.5975 3.93702 14.5625C3.97244 14.5453 4.0122 14.5391 4.05119 14.5446C4.09017 14.5502 4.1266 14.5673 4.15577 14.5938C4.1724 14.6059 4.18642 14.6213 4.19702 14.6389C4.20762 14.6566 4.21458 14.6762 4.21749 14.6966C4.2204 14.7169 4.2192 14.7377 4.21397 14.7576C4.20874 14.7775 4.19958 14.7962 4.18702 14.8125ZM4.59327 15.375C4.55162 15.3881 4.50667 15.3858 4.46655 15.3686C4.42643 15.3514 4.39379 15.3204 4.37452 15.2813C4.34378 15.2469 4.32678 15.2024 4.32678 15.1563C4.32678 15.1101 4.34378 15.0656 4.37452 15.0313C4.41617 15.0182 4.46112 15.0205 4.50124 15.0377C4.54136 15.0549 4.57401 15.0859 4.59327 15.125C4.65577 15.2188 4.65577 15.3438 4.59327 15.375ZM5.12452 15.9375C5.06202 16 4.96827 15.9688 4.87452 15.9063C4.78077 15.8125 4.74952 15.7188 4.81202 15.6563C4.85056 15.6308 4.89695 15.6199 4.94281 15.6256C4.98867 15.6313 5.03096 15.6533 5.06202 15.6875C5.08351 15.6989 5.10237 15.7146 5.11736 15.7338C5.13236 15.7529 5.14315 15.775 5.14905 15.7986C5.15495 15.8222 5.15581 15.8467 5.15158 15.8707C5.14736 15.8946 5.13814 15.9174 5.12452 15.9375ZM5.87452 16.25C5.84327 16.3438 5.74952 16.375 5.62452 16.3438C5.49952 16.3125 5.43702 16.2188 5.46827 16.125C5.49952 16.0313 5.59327 16 5.71827 16.0313C5.81202 16.0938 5.90577 16.1875 5.87452 16.25ZM6.68702 16.3125C6.68702 16.4063 6.59327 16.4688 6.46827 16.4688C6.34327 16.4688 6.24952 16.4063 6.24952 16.3125C6.24952 16.2188 6.34327 16.1563 6.46827 16.1563C6.59327 16.1875 6.68702 16.25 6.68702 16.3125ZM7.43702 16.1875C7.43702 16.2813 7.37452 16.3438 7.24952 16.375C7.20338 16.3897 7.15364 16.3884 7.1083 16.3714C7.06296 16.3544 7.02465 16.3227 6.99952 16.2813C6.99952 16.1875 7.06202 16.125 7.18702 16.0938C7.34327 16.0625 7.43702 16.125 7.43702 16.1875Z" fill="#333333"/>
</svg>
