<svg width="16" height="16" viewBox="0 0 16 16" fill="none" xmlns="http://www.w3.org/2000/svg">
<path fill-rule="evenodd" clip-rule="evenodd" d="M0 8C0 3.58214 3.58214 0 8 0C12.4179 0 16 3.58214 16 8C16 12.4179 12.4179 16 8 16C3.58214 16 0 12.4179 0 8ZM1.35714 8C1.35714 11.6679 4.33214 14.6429 8 14.6429C11.6679 14.6429 14.6429 11.6679 14.6429 8C14.6429 4.33214 11.6679 1.35714 8 1.35714C4.33214 1.35714 1.35714 4.33214 1.35714 8ZM7.39168 5.46323C7.23093 5.30249 7.14062 5.08447 7.14062 4.85714C7.14062 4.62981 7.23093 4.4118 7.39168 4.25105C7.55242 4.09031 7.77044 4 7.99777 4C8.2251 4 8.44311 4.09031 8.60386 4.25105C8.7646 4.4118 8.85491 4.62981 8.85491 4.85714C8.85491 5.08447 8.7646 5.30249 8.60386 5.46323C8.44311 5.62398 8.2251 5.71429 7.99777 5.71429C7.77044 5.71429 7.55242 5.62398 7.39168 5.46323ZM7.5692 6.85714H8.42634C8.50491 6.85714 8.5692 6.92143 8.5692 7V11.8571C8.5692 11.9357 8.50491 12 8.42634 12H7.5692C7.49062 12 7.42634 11.9357 7.42634 11.8571V7C7.42634 6.92143 7.49062 6.85714 7.5692 6.85714Z" fill="#009AFF"/>
</svg>
