<svg width="15" height="14" viewBox="0 0 15 14" fill="none" xmlns="http://www.w3.org/2000/svg">
<path d="M12.02 0.715556L8.89012 5.05556C8.6737 5.35111 9.0899 5.70889 9.38957 5.46L12.4695 2.95556C12.5527 2.89333 12.6693 2.94 12.6693 3.04889V10.8733C12.6693 10.9822 12.5194 11.0289 12.4528 10.9511L3.12986 0.528889C2.83019 0.186667 2.39734 0 1.91454 0H1.58158C0.715871 0 0 0.668889 0 1.49333V12.5067C0 13.3311 0.715871 14 1.59822 14C2.14761 14 2.66371 13.7356 2.96337 13.2844L6.09323 8.94444C6.30966 8.64889 5.89345 8.29111 5.59378 8.54L2.51387 11.0289C2.43063 11.0911 2.3141 11.0444 2.3141 10.9356V3.12667C2.3141 3.01778 2.46393 2.97111 2.53052 3.04889L11.8535 13.4711C12.1532 13.8133 12.6027 14 13.0688 14H13.4018C14.2841 14 15 13.3311 15 12.5067V1.49333C15 0.668889 14.2841 0 13.4018 0C12.8357 0 12.3196 0.264444 12.02 0.715556Z" fill="#333333"/>
</svg>
