<svg width="20" height="20" viewBox="0 0 20 20" fill="none" xmlns="http://www.w3.org/2000/svg">
<path d="M20 4.12311C19.281 4.46624 18.5102 4.68799 17.7188 4.77936C18.5233 4.23854 19.1273 3.44781 19.4375 2.52936C18.8438 2.90436 17.5312 3.43561 16.875 3.43561C16.0766 2.64315 14.9999 2.19451 13.875 2.18561C13.3331 2.18508 12.7965 2.29141 12.2958 2.49852C11.7951 2.70563 11.3401 3.00945 10.957 3.3926C10.5738 3.77575 10.27 4.2307 10.0629 4.73141C9.8558 5.23212 9.74947 5.76876 9.75 6.31061C9.74863 6.61518 9.78006 6.91902 9.84375 7.21686C6.75 7.12311 3.125 5.59186 1.09375 2.93561C0.583772 3.83394 0.429236 4.89086 0.660669 5.8976C0.892102 6.90433 1.49267 7.78767 2.34375 8.37311C1.875 8.43561 0.96875 8.34186 0.5625 7.93561C0.53125 9.37311 1.21875 11.2794 3.75 11.9669C3.25 12.2169 2.40625 12.1544 2.03125 12.0919C2.15625 13.3106 3.875 14.9044 5.71875 14.9044C5.0625 15.6544 2.8125 17.0606 0 16.6231C1.94934 17.8088 4.18712 18.4358 6.46875 18.4356C8.03272 18.446 9.58238 18.1372 11.0229 17.5282C12.4635 16.9192 13.7647 16.0228 14.847 14.8937C15.9293 13.7646 16.7699 12.4267 17.3174 10.9616C17.8649 9.49657 18.1078 7.93524 18.0312 6.37311V6.21686C18.8226 5.65951 19.4924 4.94718 20 4.12311Z" fill="#333333"/>
</svg>
