<svg width="16" height="16" viewBox="0 0 16 16" fill="none" xmlns="http://www.w3.org/2000/svg">
<path d="M14.3554 5.09321C14.3655 5.22896 14.3655 5.36473 14.3655 5.50048C14.3655 9.64092 11.066 14.4117 5.03555 14.4117C3.17767 14.4117 1.45179 13.8977 0 13.0057C0.26397 13.0348 0.517752 13.0445 0.791878 13.0445C2.32485 13.0445 3.73605 12.5499 4.86296 11.7063C3.42133 11.6772 2.2132 10.7755 1.79694 9.53428C2.00001 9.56335 2.20304 9.58275 2.41626 9.58275C2.71067 9.58275 3.00511 9.54395 3.2792 9.4761C1.77666 9.18518 0.649721 7.92463 0.649721 6.40226V6.36349C1.08625 6.59621 1.59391 6.74166 2.13195 6.76103C1.24869 6.19861 0.670034 5.23866 0.670034 4.15263C0.670034 3.57084 0.832441 3.03753 1.11672 2.57209C2.73095 4.47262 5.15736 5.71377 7.87816 5.84955C7.82741 5.61683 7.79694 5.37444 7.79694 5.13201C7.79694 3.40599 9.25888 2 11.0761 2C12.0203 2 12.8731 2.37817 13.4721 2.98906C14.2132 2.85331 14.9238 2.59149 15.5533 2.23272C15.3096 2.95998 14.7919 3.57087 14.1117 3.95871C14.7716 3.89087 15.4112 3.71629 16 3.4739C15.5534 4.09446 14.995 4.64714 14.3554 5.09321V5.09321Z" fill="#333333"/>
</svg>
