<svg width="749" height="64" viewBox="0 0 749 64" fill="none" xmlns="http://www.w3.org/2000/svg">
<rect x="0.5" y="0.5" width="748" height="63" rx="2.5" fill="#F0F9FF" stroke="#009AFF" stroke-dasharray="6 6"/>
<path d="M371.406 24.378H373.778V35.9098C373.778 36.0598 373.893 36.1825 374.034 36.1825H375.959C376.101 36.1825 376.216 36.0598 376.216 35.9098V24.378H378.594C378.809 24.378 378.927 24.1155 378.796 23.9382L375.202 19.1046C375.178 19.072 375.147 19.0457 375.112 19.0275C375.077 19.0094 375.039 19 375 19C374.961 19 374.923 19.0094 374.888 19.0275C374.853 19.0457 374.822 19.072 374.798 19.1046L371.204 23.9348C371.073 24.1155 371.191 24.378 371.406 24.378V24.378ZM386.743 34.8872H384.818C384.677 34.8872 384.561 35.0099 384.561 35.1599V40.4093H365.439V35.1599C365.439 35.0099 365.323 34.8872 365.182 34.8872H363.257C363.116 34.8872 363 35.0099 363 35.1599V41.9092C363 42.5125 363.459 43 364.027 43H385.973C386.541 43 387 42.5125 387 41.9092V35.1599C387 35.0099 386.884 34.8872 386.743 34.8872Z" fill="#009AFF"/>
</svg>
